<svg xmlns="http://www.w3.org/2000/svg" xmlns:xlink="http://www.w3.org/1999/xlink" width="6912" zoomAndPan="magnify" viewBox="0 0 5184 2592.000001" height="3456" preserveAspectRatio="xMidYMid meet" version="1.0"><defs><g/><clipPath id="015d268701"><path d="M 1487.136719 22.492188 L 2515.738281 22.492188 L 2515.738281 895.90625 L 1487.136719 895.90625 Z M 1487.136719 22.492188 " clip-rule="nonzero"/></clipPath><clipPath id="cc18ceba0b"><path d="M 2515.71875 410.679688 L 2515.71875 390.261719 L 2495.417969 388.046875 C 2489.96875 387.480469 2431.449219 381.617188 2355.675781 392.988281 L 2355.675781 244.03125 L 2329.980469 247.320312 C 2287.515625 252.828125 2248.117188 260.96875 2211.726562 271.476562 C 2172.15625 187.503906 2106.722656 108.191406 2015.761719 34.5 L 2001.4375 22.847656 L 1987.113281 34.5 C 1896.152344 108.191406 1830.71875 187.503906 1791.148438 271.476562 C 1754.753906 260.96875 1715.355469 252.828125 1672.894531 247.320312 L 1647.195312 244.03125 L 1647.195312 392.988281 C 1571.40625 381.617188 1512.90625 387.480469 1507.457031 388.046875 L 1487.152344 390.261719 L 1487.152344 410.679688 C 1487.152344 578.230469 1532.175781 705.757812 1621.050781 789.84375 C 1694.566406 859.378906 1795.695312 895.660156 1915.023438 895.660156 C 1924.402344 895.660156 1933.953125 895.378906 1943.613281 894.984375 L 1976.304688 894.984375 L 1969.820312 866.898438 C 1953.671875 796.96875 1926.902344 627.988281 2001.4375 490.289062 C 2075.96875 627.988281 2049.199219 796.96875 2033.054688 866.898438 L 2026.570312 894.984375 L 2059.257812 894.984375 C 2068.917969 895.378906 2078.46875 895.660156 2087.847656 895.660156 C 2207.175781 895.660156 2308.324219 859.378906 2381.824219 789.84375 C 2470.699219 705.757812 2515.71875 578.230469 2515.71875 410.679688 Z M 2310.207031 296.175781 L 2310.207031 401.691406 C 2291.785156 405.960938 2272.796875 411.300781 2253.757812 418.066406 C 2249.714844 382.648438 2241.539062 347.855469 2229.246094 313.789062 C 2254.601562 306.683594 2281.539062 300.726562 2310.207031 296.175781 Z M 1692.667969 296.175781 C 1721.316406 300.726562 1748.269531 306.703125 1773.628906 313.808594 C 1761.355469 347.871094 1753.160156 382.667969 1749.117188 418.085938 C 1730.074219 411.316406 1711.089844 405.980469 1692.667969 401.710938 Z M 1652.308594 756.757812 C 1576.574219 685.175781 1536.496094 576.011719 1532.925781 432.109375 C 1556.515625 431.375 1598.417969 431.769531 1647.195312 439.890625 L 1647.195312 574.976562 C 1647.195312 678.277344 1749.53125 781.535156 1850.324219 845.957031 C 1783.742188 837.199219 1711.484375 812.816406 1652.308594 756.757812 Z M 1692.667969 574.996094 L 1692.667969 449.460938 C 1710.300781 454.007812 1728.308594 459.628906 1746.277344 466.621094 C 1745.375 603.25 1804.382812 719.859375 1856.226562 795.632812 C 1767.257812 734.070312 1692.667969 647.144531 1692.667969 574.996094 Z M 1911.152344 793.527344 C 1862.824219 728.429688 1797.898438 617.613281 1792.164062 487.714844 C 1838.835938 512.847656 1882.671875 549.109375 1915.757812 601.203125 C 1902.917969 670.851562 1904.835938 738.902344 1911.152344 793.527344 Z M 1930.136719 542.984375 C 1890.625 493.691406 1842.523438 459.628906 1793.066406 436.207031 C 1796.074219 399.363281 1804.042969 363.210938 1816.996094 327.777344 C 1886.246094 353.25 1940.984375 389.644531 1980.609375 436.828125 C 1957.9375 470.609375 1941.621094 506.589844 1930.136719 542.984375 Z M 2001.4375 391.804688 C 1958.691406 346.554688 1902.976562 311.179688 1834.851562 285.875 C 1869.589844 214.234375 1925.195312 146.015625 2001.4375 81.648438 C 2077.679688 146.015625 2133.28125 214.234375 2168.019531 285.875 C 2099.898438 311.179688 2044.183594 346.539062 2001.4375 391.804688 Z M 2022.246094 436.828125 C 2061.871094 389.644531 2116.628906 353.25 2185.859375 327.777344 C 2198.828125 363.195312 2206.78125 399.363281 2209.789062 436.207031 C 2160.332031 459.628906 2112.230469 493.691406 2072.71875 542.984375 C 2061.25 506.589844 2044.933594 470.609375 2022.246094 436.828125 Z M 2087.117188 601.203125 C 2120.199219 549.128906 2164.035156 512.847656 2210.710938 487.714844 C 2204.976562 617.632812 2140.050781 728.429688 2091.722656 793.527344 C 2098.039062 738.902344 2099.953125 670.851562 2087.117188 601.203125 Z M 2256.59375 466.621094 C 2274.566406 459.628906 2292.574219 454.007812 2310.207031 449.460938 L 2310.207031 574.996094 C 2310.207031 647.144531 2235.617188 734.070312 2146.648438 795.652344 C 2198.492188 719.859375 2257.496094 603.25 2256.59375 466.621094 Z M 2350.5625 756.757812 C 2291.390625 812.816406 2219.113281 837.21875 2152.550781 845.957031 C 2253.34375 781.535156 2355.675781 678.292969 2355.675781 574.976562 L 2355.675781 439.890625 C 2404.457031 431.769531 2446.355469 431.355469 2469.949219 432.109375 C 2466.375 576.011719 2426.300781 685.175781 2350.5625 756.757812 Z M 2350.5625 756.757812 " clip-rule="nonzero"/></clipPath></defs><g fill="#ce0000" fill-opacity="1"><g transform="translate(-79.774007, 2012.991316)"><g><path d="M 327.921875 -872.25 L 327.921875 -698.453125 C 388.035156 -818.691406 488.59375 -878.8125 629.59375 -878.8125 L 629.59375 -698.453125 C 543.25 -702.828125 473.296875 -682.609375 419.734375 -637.796875 C 366.171875 -592.984375 335.566406 -532.316406 327.921875 -455.796875 L 327.921875 0 L 139.359375 0 L 139.359375 -872.25 Z M 327.921875 -872.25 "/></g></g></g><g fill="#ce0000" fill-opacity="1"><g transform="translate(308.80356, 2012.991316)"><g><path d="M 498.4375 -878.8125 C 648.175781 -878.8125 756.65625 -833.722656 823.875 -743.546875 C 891.101562 -653.367188 918.707031 -526.847656 906.6875 -363.984375 L 247.578125 -363.984375 C 262.878906 -296.210938 294.578125 -242.925781 342.671875 -204.125 C 390.765625 -165.320312 449.242188 -145.921875 518.109375 -145.921875 C 616.484375 -145.921875 698.460938 -179.804688 764.046875 -247.578125 L 864.0625 -141 C 774.425781 -42.625 654.1875 6.5625 503.34375 6.5625 C 368.90625 6.5625 260.96875 -34.148438 179.53125 -115.578125 C 98.101562 -197.015625 57.390625 -303.316406 57.390625 -434.484375 C 57.390625 -565.648438 98.378906 -672.222656 180.359375 -754.203125 C 262.335938 -836.179688 368.363281 -877.71875 498.4375 -878.8125 Z M 244.296875 -501.703125 L 742.734375 -501.703125 C 739.453125 -571.660156 715.945312 -626.859375 672.21875 -667.296875 C 628.5 -707.742188 571.117188 -727.96875 500.078125 -727.96875 C 431.210938 -727.96875 374.097656 -707.742188 328.734375 -667.296875 C 283.367188 -626.859375 255.222656 -571.660156 244.296875 -501.703125 Z M 244.296875 -501.703125 "/></g></g></g><g fill="#ce0000" fill-opacity="1"><g transform="translate(1015.457881, 2012.991316)"><g><path d="M 970.625 -1216.5625 L 970.625 0 L 782.078125 0 L 782.078125 -149.203125 C 717.585938 -44.265625 615.390625 8.203125 475.484375 8.203125 C 350.867188 8.203125 250.03125 -33.054688 172.96875 -115.578125 C 95.914062 -198.109375 57.390625 -306.050781 57.390625 -439.40625 C 57.390625 -570.570312 95.644531 -676.867188 172.15625 -758.296875 C 248.664062 -839.734375 348.679688 -880.453125 472.203125 -880.453125 C 612.109375 -880.453125 715.398438 -827.441406 782.078125 -721.421875 L 782.078125 -1216.5625 Z M 322.171875 -228.71875 C 371.910156 -175.707031 436.128906 -149.203125 514.828125 -149.203125 C 593.523438 -149.203125 657.738281 -175.707031 707.46875 -228.71875 C 757.207031 -281.726562 782.078125 -349.769531 782.078125 -432.84375 C 782.078125 -517.007812 757.207031 -585.875 707.46875 -639.4375 C 657.738281 -693 593.523438 -719.78125 514.828125 -719.78125 C 436.128906 -719.78125 371.910156 -693 322.171875 -639.4375 C 272.441406 -585.875 247.03125 -517.007812 245.9375 -432.84375 C 247.03125 -349.769531 272.441406 -281.726562 322.171875 -228.71875 Z M 322.171875 -228.71875 "/></g></g></g><g fill="#ce0000" fill-opacity="1"><g transform="translate(1876.231345, 2012.991316)"><g><path d="M 483.671875 -400.0625 L 336.109375 -244.296875 L 336.109375 0 L 147.5625 0 L 147.5625 -1216.5625 L 336.109375 -1216.5625 L 336.109375 -482.03125 L 721.421875 -872.25 L 937.84375 -872.25 L 614.84375 -534.5 L 962.4375 0 L 739.453125 0 Z M 483.671875 -400.0625 "/></g></g></g><g fill="#ce0000" fill-opacity="1"><g transform="translate(2594.362605, 2012.991316)"><g><path d="M 513.1875 -878.8125 C 647.632812 -878.8125 756.9375 -838.09375 841.09375 -756.65625 C 925.257812 -675.226562 967.34375 -568.382812 967.34375 -436.125 C 967.34375 -304.957031 925.257812 -198.382812 841.09375 -116.40625 C 756.9375 -34.425781 647.632812 6.5625 513.1875 6.5625 C 377.644531 6.5625 267.789062 -34.425781 183.625 -116.40625 C 99.46875 -198.382812 57.390625 -304.957031 57.390625 -436.125 C 57.390625 -568.382812 99.46875 -675.226562 183.625 -756.65625 C 267.789062 -838.09375 377.644531 -878.8125 513.1875 -878.8125 Z M 513.1875 -716.5 C 434.488281 -716.5 370.269531 -690.265625 320.53125 -637.796875 C 270.800781 -585.328125 245.9375 -517.554688 245.9375 -434.484375 C 245.9375 -350.316406 270.800781 -282 320.53125 -229.53125 C 370.269531 -177.070312 434.488281 -150.84375 513.1875 -150.84375 C 591.882812 -150.84375 655.828125 -177.070312 705.015625 -229.53125 C 754.203125 -282 778.796875 -350.316406 778.796875 -434.484375 C 778.796875 -517.554688 753.925781 -585.328125 704.1875 -637.796875 C 654.457031 -690.265625 590.789062 -716.5 513.1875 -716.5 Z M 513.1875 -716.5 "/></g></g></g><g fill="#ce0000" fill-opacity="1"><g transform="translate(3361.681098, 2012.991316)"><g><path d="M 483.671875 -400.0625 L 336.109375 -244.296875 L 336.109375 0 L 147.5625 0 L 147.5625 -1216.5625 L 336.109375 -1216.5625 L 336.109375 -482.03125 L 721.421875 -872.25 L 937.84375 -872.25 L 614.84375 -534.5 L 962.4375 0 L 739.453125 0 Z M 483.671875 -400.0625 "/></g></g></g><g fill="#ce0000" fill-opacity="1"><g transform="translate(4079.812172, 2012.991316)"><g><path d="M 154.109375 -1204.265625 C 174.878906 -1225.578125 201.113281 -1236.234375 232.8125 -1236.234375 C 264.519531 -1236.234375 290.753906 -1225.578125 311.515625 -1204.265625 C 332.285156 -1182.953125 342.671875 -1155.351562 342.671875 -1121.46875 C 342.671875 -1088.675781 332.285156 -1061.625 311.515625 -1040.3125 C 290.753906 -1019 264.519531 -1008.34375 232.8125 -1008.34375 C 201.113281 -1008.34375 174.878906 -1019 154.109375 -1040.3125 C 133.347656 -1061.625 122.96875 -1088.675781 122.96875 -1121.46875 C 122.96875 -1155.351562 133.347656 -1182.953125 154.109375 -1204.265625 Z M 326.28125 0 L 139.359375 0 L 139.359375 -872.25 L 326.28125 -872.25 Z M 326.28125 0 "/></g></g></g><g fill="#ce0000" fill-opacity="1"><g transform="translate(4288.037056, 2012.991316)"><g><path d="M 662.390625 0 L 662.390625 -106.578125 C 600.085938 -30.054688 503.898438 8.203125 373.828125 8.203125 C 280.910156 8.203125 206.578125 -17.207031 150.828125 -68.03125 C 95.085938 -118.863281 67.21875 -183.628906 67.21875 -262.328125 C 67.21875 -342.117188 96.179688 -405.515625 154.109375 -452.515625 C 212.046875 -499.523438 292.9375 -523.578125 396.78125 -524.671875 L 660.75 -524.671875 L 660.75 -550.890625 C 660.75 -606.640625 642.984375 -649.816406 607.453125 -680.421875 C 571.929688 -711.023438 520.289062 -726.328125 452.53125 -726.328125 C 368.363281 -726.328125 282.554688 -696.816406 195.109375 -637.796875 L 118.046875 -768.96875 C 184.722656 -808.3125 244.566406 -836.453125 297.578125 -853.390625 C 350.597656 -870.335938 415.910156 -878.8125 493.515625 -878.8125 C 605.003906 -878.8125 691.351562 -851.757812 752.5625 -797.65625 C 813.769531 -743.550781 844.921875 -668.40625 846.015625 -572.21875 L 847.65625 0 Z M 413.171875 -141 C 479.847656 -141 536.410156 -156.570312 582.859375 -187.71875 C 629.316406 -218.875 655.28125 -258.5 660.75 -306.59375 L 660.75 -386.9375 L 424.65625 -386.9375 C 362.34375 -386.9375 316.703125 -377.914062 287.734375 -359.875 C 258.773438 -341.84375 244.296875 -312.0625 244.296875 -270.53125 C 244.296875 -231.175781 259.320312 -199.75 289.375 -176.25 C 319.4375 -152.75 360.703125 -141 413.171875 -141 Z M 413.171875 -141 "/></g></g></g><g clip-path="url(#015d268701)"><g clip-path="url(#cc18ceba0b)"><path fill="#ce0000" d="M 1487.152344 22.847656 L 1487.152344 895.660156 L 2515.71875 895.660156 L 2515.71875 22.847656 Z M 1487.152344 22.847656 " fill-opacity="1" fill-rule="nonzero"/></g></g></svg>